# xmcd
#
# Track frame offsets:
#	150
#	19074
#	39176
#	60679
#	76468
#	97166
#	118018
#	133661
#	158555
#	175846
#
# Disc length: 2587 seconds
#
# Revision: 0
# Processed by: cddbd v1.4PL0 Copyright (c) Steve Scherf et al.
# Submitted via: dBpowerAMP V4.0
#
DISCID=7a0a190a
DTITLE=Alejandro Jaen - canciones de la vida
DYEAR=1900
DGENRE=
TTITLE0=vals para una novia
TTITLE1=yo no te olvido
TTITLE2=14 de febrero
TTITLE3=vals de la quinceanera
TTITLE4=maderecita
TTITLE5=lucerito
TTITLE6=mi amigo
TTITLE7=hijo mio
TTITLE8=nuestro bebe
TTITLE9=amigo
EXTD=charlie192
EXTT0=
EXTT1=
EXTT2=
EXTT3=
EXTT4=
EXTT5=
EXTT6=
EXTT7=
EXTT8=
EXTT9=
PLAYORDER=
